<?xml version="1.0" encoding="UTF-8" standalone="no"?>
<!DOCTYPE svg PUBLIC "-//W3C//DTD SVG 20010904//EN"
              "http://www.w3.org/TR/2001/REC-SVG-20010904/DTD/svg10.dtd">

<svg xmlns="http://www.w3.org/2000/svg"
     width="11.1111in" height="9.72222in"
     viewBox="0 0 800 700">
  <path id="Selection #3"
        fill="#c100b6" stroke="#c100b6" stroke-width="1"
        d="M 554.67,254.00
           C 605.82,266.36 622.46,196.00 622.46,196.00
             626.91,184.73 634.34,181.84 634.26,173.00
             634.16,160.85 624.59,152.91 621.79,143.00
             617.67,122.00 643.63,52.29 643.75,41.75
             641.25,10.25 670.57,20.21 677.99,25.41
             687.09,34.73 725.00,85.00 703.68,135.00
             699.50,156.00 680.50,191.00 683.64,199.91
             685.17,204.26 694.90,208.18 699.00,210.25
             738.75,232.00 747.62,248.71 759.42,260.72
             774.71,276.27 789.44,283.94 794.33,307.00
             799.00,322.88 766.00,356.38 745.00,356.45
             745.00,356.45 715.00,349.00 715.00,349.00
             705.50,346.25 695.38,352.13 691.00,354.33
             687.44,355.19 674.94,352.97 671.00,352.00
             670.02,355.01 668.69,361.80 667.26,363.82
             607.00,396.00 461.50,533.50 428.00,501.81
             402.96,480.23 389.63,417.25 383.75,406.25
             383.75,406.25 349.37,329.00 349.37,329.00
             346.32,324.75 341.82,320.36 336.00,316.00
             349.75,323.50 374.50,396.75 382.18,407.00
             392.00,439.25 400.50,474.50 420.42,497.72
             435.67,520.67 518.33,540.67 571.00,525.67
             585.69,525.49 623.89,527.24 614.24,551.00
             600.33,578.00 554.95,583.90 534.67,583.67
             507.33,581.67 420.33,576.00 364.51,533.79
             361.50,530.50 344.94,473.00 344.94,473.00
             324.75,433.75 296.00,421.50 278.00,418.43
             267.11,415.31 135.64,400.36 108.91,407.27
             104.58,407.85 84.00,412.55 78.73,399.09
             75.66,408.01 57.82,412.18 52.00,416.60
             46.91,416.55 22.00,415.82 5.33,396.00
             8.67,388.00 10.88,370.67 15.65,364.01
             19.52,358.60 39.33,344.00 59.00,346.00
             12.00,112.67 298.67,10.67 554.67,254.00 Z
           M 336.00,316.00 336.00,316.00 336.00,316.00 336.00,316.00
           M 348.34,492.00
           C 348.34,492.00 362.63,533.00 362.03,538.00
             361.60,541.20 357.63,545.13 355.13,555.88
             354.75,563.38 335.59,570.53 328.00,573.42
             284.33,590.00 268.00,621.00 247.00,631.67
             232.07,642.44 233.23,638.77 225.00,644.44
             219.18,647.73 204.55,666.09 170.00,678.47
             152.45,680.73 144.06,676.64 141.57,670.71
             138.00,660.00 148.33,639.80 154.10,634.18
             188.00,608.00 201.04,610.21 214.00,601.48
             286.00,552.50 336.82,474.48 340.00,468.00
             344.42,473.71 346.00,484.67 348.34,492.00 Z" />
</svg>
